<svg width="16" height="16" viewBox="0 0 16 16" fill="none" xmlns="http://www.w3.org/2000/svg">
<path d="M7.60535 9.59696L2.01599 15.1863C1.80687 15.3954 1.54071 15.5 1.21751 15.5C0.89432 15.5 0.62816 15.3954 0.419034 15.1863C0.209909 14.9772 0.105347 14.711 0.105347 14.3878C0.105347 14.0646 0.209909 13.7985 0.419034 13.5894L6.00839 8L0.419034 2.41065C0.209909 2.20152 0.105347 1.93536 0.105347 1.61217C0.105347 1.28897 0.209909 1.02281 0.419034 0.813688C0.62816 0.604562 0.89432 0.5 1.21751 0.5C1.54071 0.5 1.80687 0.604562 2.01599 0.813688L7.60535 6.40304L13.1947 0.813688C13.4038 0.604562 13.67 0.5 13.9932 0.5C14.3164 0.5 14.5825 0.604562 14.7917 0.813688C15.0008 1.02281 15.1053 1.28897 15.1053 1.61217C15.1053 1.93536 15.0008 2.20152 14.7917 2.41065L9.2023 8L14.7917 13.5894C15.0008 13.7985 15.1053 14.0646 15.1053 14.3878C15.1053 14.711 15.0008 14.9772 14.7917 15.1863C14.5825 15.3954 14.3164 15.5 13.9932 15.5C13.67 15.5 13.4038 15.3954 13.1947 15.1863L7.60535 9.59696Z" fill="#151716"/>
</svg>
