<svg width="26" height="26" viewBox="0 0 26 26" fill="none" xmlns="http://www.w3.org/2000/svg">
<path d="M25.9986 19.3844V24.492C25.9987 24.8577 25.8602 25.2099 25.6109 25.4774C25.3616 25.7449 25.0201 25.908 24.6553 25.9336C24.0246 25.9779 23.5094 26 23.1098 26C10.346 26 0 15.6534 0 2.88889C0 2.49022 0.0221469 1.97504 0.0664408 1.34333C0.0920383 0.97853 0.255048 0.637016 0.522576 0.387702C0.790105 0.138388 1.14224 -0.000165292 1.50792 3.70615e-07H6.61519C6.79435 -0.000181039 6.96717 0.0662408 7.1001 0.186363C7.23303 0.306485 7.31657 0.471731 7.33448 0.65C7.36722 0.98126 7.39803 1.24704 7.42692 1.44733C7.71394 3.45067 8.30219 5.3991 9.17171 7.22656C9.30893 7.51545 9.21938 7.86067 8.95939 8.04556L5.84245 10.2729C7.7486 14.7135 11.2873 18.2524 15.7277 20.1587L17.952 17.0473C18.0425 16.9198 18.1752 16.8282 18.3266 16.7889C18.478 16.7495 18.6384 16.7648 18.7796 16.8321C20.6068 17.7 22.5546 18.2869 24.5571 18.5727C24.7574 18.6016 25.0222 18.6324 25.3515 18.6651C25.5295 18.6834 25.6944 18.767 25.8142 18.8999C25.934 19.0328 25.9988 19.2055 25.9986 19.3844Z" fill="#DA1D1D"/>
</svg>
