<svg width="18" height="21" viewBox="0 0 18 21" fill="none" xmlns="http://www.w3.org/2000/svg">
<path d="M10.7525 13.375C14.5763 13.375 17.25 10.704 17.25 6.86452C17.25 3.025 14.5763 0.4375 10.7525 0.4375H3.41406C3.11637 0.4375 2.875 0.678865 2.875 0.976562V10.2589H0.539062C0.241365 10.2589 0 10.5002 0 10.7979V12.8359C0 13.1336 0.241365 13.375 0.539062 13.375H2.875V14.8125H0.539062C0.241365 14.8125 0 15.0539 0 15.3516V17.1484C0 17.4461 0.241365 17.6875 0.539062 17.6875H2.875V20.0234C2.875 20.3211 3.11637 20.5625 3.41406 20.5625H6.04469C6.34238 20.5625 6.58375 20.3211 6.58375 20.0234V17.6875H13.8359C14.1336 17.6875 14.375 17.4461 14.375 17.1484V15.3516C14.375 15.0539 14.1336 14.8125 13.8359 14.8125H6.58375V13.375H10.7525ZM6.58375 3.52579H10.12C12.2188 3.52579 13.4838 4.83346 13.4838 6.86452C13.4838 8.92338 12.2188 10.2589 10.0625 10.2589H6.58375V3.52579Z" fill="white"/>
</svg>
