<svg width="20" height="21" viewBox="0 0 20 21" fill="none" xmlns="http://www.w3.org/2000/svg">
<g clip-path="url(#clip0_1_246)">
<path d="M0.125704 13.5954L2.00182 16.7445C2.11025 16.9265 2.28039 17.0665 2.48331 17.1406C2.68622 17.2148 2.90937 17.2185 3.11479 17.1511L5.87543 16.246C6.11912 16.4017 6.37197 16.5435 6.63269 16.6706L7.20403 19.4391C7.24657 19.6452 7.36146 19.8306 7.52917 19.9639C7.69687 20.0971 7.90703 20.1699 8.12389 20.1699H11.8761C12.093 20.1699 12.3031 20.0971 12.4708 19.9639C12.6386 19.8306 12.7534 19.6452 12.796 19.4391L13.3673 16.6706C13.628 16.5435 13.8809 16.4017 14.1245 16.246L16.8852 17.1511C17.0906 17.2185 17.3138 17.2148 17.5167 17.1406C17.7196 17.0665 17.8898 16.9265 17.9982 16.7445L19.8743 13.5953C19.9827 13.4133 20.0227 13.2005 19.9875 12.9932C19.9523 12.7858 19.8441 12.5967 19.6812 12.4579L17.4918 10.5933C17.5086 10.3112 17.5086 10.0285 17.4918 9.74653L19.6811 7.88192C19.8439 7.74319 19.9522 7.55405 19.9874 7.34668C20.0226 7.13931 19.9826 6.92653 19.8742 6.74453L17.9981 3.59532C17.8896 3.41331 17.7195 3.27334 17.5166 3.19921C17.3137 3.12508 17.0905 3.12137 16.8851 3.18871L14.1245 4.0938C13.8809 3.93812 13.628 3.79634 13.3673 3.66919L12.796 0.90071C12.7534 0.694631 12.6386 0.509199 12.4708 0.375963C12.3031 0.242727 12.093 0.169917 11.8761 0.169922L8.12389 0.169922C7.90703 0.169917 7.69687 0.242727 7.52917 0.375963C7.36146 0.509199 7.24657 0.694631 7.20403 0.90071L6.63269 3.66919C6.37199 3.79634 6.11916 3.93812 5.87549 4.0938L3.11479 3.18871C2.90937 3.12141 2.68624 3.12515 2.48333 3.19927C2.28043 3.2734 2.11028 3.41335 2.00182 3.59532L0.125704 6.74453C0.0172772 6.92653 -0.0227359 7.13931 0.0124724 7.34668C0.0476806 7.55405 0.155935 7.74319 0.318819 7.88192L2.50812 9.74653C2.49143 10.0286 2.49143 10.3113 2.50812 10.5933L0.318819 12.4579C0.15592 12.5967 0.0476557 12.7858 0.0124471 12.9932C-0.0227615 13.2006 0.0172608 13.4134 0.125704 13.5954ZM10 6.53356C12.069 6.53356 13.7522 8.16483 13.7522 10.1699C13.7522 12.175 12.069 13.8063 10 13.8063C7.93103 13.8063 6.24778 12.175 6.24778 10.1699C6.24778 8.16483 7.93103 6.53356 10 6.53356Z" fill="#DA1D1D"/>
</g>
<defs>
<clipPath id="clip0_1_246">
<rect width="20" height="20" fill="white" transform="translate(0 0.169922)"/>
</clipPath>
</defs>
</svg>
